<?xml version="1.0" encoding="utf-8"?>
<!-- Generator: Adobe Illustrator 26.0.3, SVG Export Plug-In . SVG Version: 6.00 Build 0)  -->
<svg version="1.1" id="Layer_1" xmlns="http://www.w3.org/2000/svg" xmlns:xlink="http://www.w3.org/1999/xlink" x="0px" y="0px"
	 viewBox="0 0 1224 792" style="enable-background:new 0 0 1224 792;" xml:space="preserve">
<path d="M451.97,368.65c0.28-0.37,0.57-0.74,0.84-1.12c0.26-0.38,0.4-0.7,0.15-1.25c-0.32-0.7-0.44-1.5,0.3-2.22
	c0.28-0.26,0.3-0.96,0.2-1.42c-0.3-1.44,0.16-2.74,0.51-4.09c0.15-0.6,0.2-1.33,0.01-1.9c-0.62-1.81-0.6-2.11,0.8-3.21
	c-0.52-2.24,0.4-4.27,0.7-6.55c-0.46-0.25-0.63-0.84-0.32-1.62c0.37-0.93,0.53-2.89,0.55-3.99c0.01-0.73,0.09-1.56,0.43-2.17
	c0.62-1.11,0.39-2.24,0.49-3.38c0.1-1.11,0.33-2.34,0.77-3.28c0.89-1.9,0.91-3.9,1.31-5.85c0.07-0.34,0.03-0.73,0.18-1.03
	c0.68-1.3,0.57-2.88,1.57-4.11c0.36-0.45,0.75-1.15,0.36-2.08c-0.32-0.76,0.05-1.82,0.15-2.74c0.03-0.26,0.12-0.68,0.28-0.72
	c1.07-0.32,1.04-1.23,1.05-2.02c0.02-1.01,0.22-1.78,1.58-1.89c-1.18-1.38-0.44-2.6,0-3.77c0.55-1.46,1.54-2.8,1.83-4.29
	c0.21-1.09,0.8-1.93,1.14-2.91c0.35-1.01,1.02-1.9,1.44-2.89c0.13-0.31-0.09-0.77-0.16-1.23c0.73-0.17,1.42-0.42,0.57-1.17
	c0.66-1.26,1.28-2.45,1.9-3.63c0.21-0.4,0.47-0.78,0.64-1.2c0.19-0.47,0.28-0.98,0.46-1.46c0.15-0.4,0.29-1.01,0.58-1.12
	c0.95-0.33,1.32-1.11,1.8-1.85c0.52-0.79,0.81-1.5-0.29-2.22c0.72-0.96,1.35-1.78,2.1-2.78c0,0-0.14-0.3-0.24-0.52
	c0.55-0.75,1.15-1.41,1.58-2.17c0.42-0.75,1.26-1.19,1.41-2.13c0.16-1.02,1.44-2.55,1.81-3.54c0.42-1.1,1.55-1.28,2-2.33
	c0.72-1.65,1.88-3.11,2.84-4.65c0.51-0.83,1.47-1.25,1.69-2.42c0.14-0.75,1.27-1.16,1.75-1.99c0.89-1.51,1.94-2.92,2.94-4.36
	c0.13-0.18,0.36-0.3,0.54-0.44c1.41-1.16,2.65-2.46,3.6-4.05c0.31-0.53,0.89-0.91,1.39-1.31c0.9-0.73,1.9-1.3,2.22-2.6
	c0.12-0.48,0.94-1.12,1.43-1.1c0.91,0.02,1.16-0.6,1.65-1.03c1.01-0.89,1.96-2.16,3.14-2.45c1.21-0.3,1.66-1.23,2.48-1.8
	c0.96-0.67,1.78-1.56,2.86-2.12c0.88-0.45,1.84-0.75,2.43-1.69c0.45-0.71,1.66-0.42,2.02-0.86c0.49-0.61,0.75-1.23,1.66-1.36
	c0.39-0.06,0.72-0.53,1.1-0.78c2.78-1.8,5.76-3.26,8.28-5.48c0.83-0.73,2.07-0.96,3.07-1.52c0.57-0.32,0.99-0.91,1.55-1.26
	c1.28-0.81,2.53-1.88,3.94-2.2c1.39-0.32,2-1.13,2.76-2.06c0.29-0.35,0.92-0.44,1.4-0.61c0.69-0.24,1.54-0.27,2.05-0.71
	c0.76-0.66,1.41-1.32,2.51-1.12c0.82-1.18,2.28-1.05,3.4-1.61c1.42-0.7,2.76-1.57,4.24-2.14c0.44-0.17,0.92-0.38,1.36-0.35
	c0.64,0.04,1.17-0.01,1.58-0.53c0.03-0.04,0.1-0.06,0.16-0.07c1.77-0.4,3.55-0.81,5.33-1.2c0.39-0.08,0.85,0.01,1.17-0.17
	c2.14-1.2,4.61-1.18,6.88-1.9c1.16-0.36,2.46-0.28,3.65-0.58c1.86-0.48,3.81-0.46,5.65-1.15c0.85-0.32,1.05-0.74,0.83-1.44
	c-0.25-0.77-0.19-1.45-0.02-2.23c0.14-0.65-0.41-1.42-0.36-2.11c0.05-0.66,0.66-1.21,0.4-2.02c-0.45-1.41-0.48-2.85-0.02-4.28
	c0.05-0.17,0.2-0.41,0.14-0.49c-0.69-0.94-0.15-1.92-0.12-2.88c0.03-1.04-0.05-2.08,0.02-3.11c0.11-1.63,0.36-3.26,0.46-4.89
	c0.12-1.9,0.07-3.8,0.24-5.69c0.15-1.7,0.49-3.39,0.74-5.09c0.04-0.29,0.18-0.61,0.11-0.87c-0.34-1.25-0.09-2.4,0.22-3.64
	c0.63-2.56,1.01-5.18,1.44-7.78c0.26-1.57,0.14-3.26,0.68-4.7c0.56-1.5,0.18-3.23,1.3-4.55c0.24-0.28,0.4-0.89,0.26-1.17
	c-0.35-0.66,0.19-0.97,0.31-1.44c0.28-1.12,1.09-1.97,1.44-3c0.35-1.04,0.19-2.24,0.41-3.35c0.28-1.46,0.19-3.04,1.38-4.26
	c0.34-0.35,0.35-1.04,0.48-1.59c0.36-1.55,1.19-2.97,1.22-4.61c0.01-0.45,0.25-0.9,0.41-1.35c0.35-0.99,0.84-1.94,1.06-2.95
	c0.22-1.03,0.19-2.11,1.09-2.88c0.16-0.14,0.23-0.43,0.25-0.66c0.2-1.89,0.78-3.63,1.69-5.32c0.7-1.3,1-2.82,1.47-4.25
	c0.81-2.48,1.53-4.98,2.43-7.42c0.62-1.7,1.5-3.32,2.2-4.99c0.27-0.65,0.33-1.38,0.57-2.04c0.69-1.93,1.28-3.91,2.21-5.72
	c0.44-0.86,0.72-1.71,1.04-2.59c0.74-2.02,1.64-3.98,2.47-5.98c0.79-1.92,1.88-3.67,2.59-5.66c0.78-2.18,2.31-4.08,3.54-6.09
	c0.1-0.16,0.41-0.19,0.82-0.36c0.89,1.41,1.9,2.75,2.64,4.22c1.7,3.4,3.23,6.88,4.91,10.3c0.35,0.72-0.01,1.74,0.94,2.2
	c0.22,2.16,1.6,3.9,2.18,5.93c0.05,0.17,0.05,0.37,0.14,0.51c0.8,1.19,1.06,2.53,1.36,3.92c0.29,1.36,1.09,2.61,1.65,3.91
	c1.59,3.66,2.76,7.46,3.88,11.28c0.35,1.21,0.96,2.34,1.48,3.5c0.6,1.34,0.86,2.78,1.19,4.2c0.08,0.34,0.03,0.81,0.23,1.02
	c1.06,1.09,1.16,2.45,1.25,3.84c0.02,0.27,0.18,0.55,0.31,0.8c0.62,1.16,1.05,2.34,1.19,3.7c0.12,1.21,0.86,2.35,1.01,3.56
	c0.16,1.32,1.13,2.2,1.46,3.46c0.39,1.47,0.44,2.92,0.63,4.38c0.07,0.52,0.06,1.15,0.35,1.51c0.8,0.99,0.91,2.31,1.66,3.31
	c0.13,0.17,0.02,0.51,0.04,0.77c0.03,0.39-0.02,0.84,0.15,1.17c0.9,1.7,1.03,3.56,1.35,5.39c0.59,3.35,1.49,6.66,1.93,10.03
	c0.22,1.72,1.09,3.42,0.43,5.26c-0.18,0.5,0.1,1.2,0.25,1.79c0.48,1.86,0.32,3.8,0.71,5.69c0.33,1.61,0.08,3.34,0.08,5.01
	c0,0.24-0.11,0.51-0.02,0.7c0.73,1.58,0.67,3.33,0.62,4.93c-0.05,1.46,0.65,3-0.2,4.43c-0.07,0.12-0.04,0.36,0.03,0.5
	c0.51,1.08,0.42,2.16,0.3,3.32c-0.12,1.05-0.47,2.13,0.17,3.25c0.24,0.41-0.34,1.23-0.36,1.87c-0.02,0.67,0.61,1.32,0.05,2.05
	c-0.12,0.16-0.05,0.47-0.09,0.7c-0.1,0.59,0.17,0.92,0.73,1.01c1.33,0.21,2.53,0.95,3.98,0.81c0.77-0.08,1.58,0.35,2.37,0.49
	c2.64,0.47,5.29,0.91,7.93,1.4c0.33,0.06,0.6,0.38,0.93,0.51c0.64,0.26,1.29,0.52,1.96,0.68c0.74,0.18,1.51,0.22,2.26,0.36
	c0.91,0.17,1.74,0.54,2.73,0.54c0.87,0,1.53,0.92,2.63,0.91c0.94-0.01,1.9,0.61,2.83,1.02c0.57,0.25,1.07,0.65,1.62,0.92
	c1.34,0.67,2.65,1.62,4.07,1.86c1.62,0.28,2.63,1.47,4.04,1.98c0.74,0.26,1.55,0.37,2.21,0.76c0.49,0.29,0.84,0.88,1.17,1.39
	c0.29,0.45,0.52,0.82,1.08,0.36c0.06-0.05,0.23-0.05,0.31-0.01c1.59,0.89,3.47,1.49,4.68,2.75c1.96,2.03,4.64,2.78,6.76,4.48
	c1.89,1.52,4,2.76,6.02,4.11c0.18,0.12,0.42,0.22,0.64,0.22c1.05,0.01,1.34,0.79,1.53,1.28c0.78,0.28,1.55,0.31,1.85,0.7
	c0.89,1.16,2.15,1.62,3.35,2.25c0.5,0.26,0.84,1.09,1.29,1.12c0.75,0.05,0.77,0.66,1.16,0.94c1.29,0.93,2.66,1.75,3.97,2.66
	c0.53,0.36,1.03,0.8,1.44,1.29c0.48,0.58,0.86,1.02,1.76,1.07c0.59,0.03,1.28,0.47,1.43,1.48c0.1,0.68,0.87,1.44,1.54,1.82
	c1.08,0.62,1.73,1.54,2.48,2.45c0.97,1.17,2.1,2.21,3.16,3.31c0.16,0.17,0.37,0.31,0.5,0.49c1.4,1.94,2.81,3.87,4.16,5.85
	c1.38,2.02,2.86,3.97,4.07,6.12c0.55,0.98,1.05,2.2,2.33,2.72c0.47,0.2,0.95,0.84,1.06,1.36c0.24,1.13,1.49,1.73,1.39,3.05
	c-0.04,0.47,0.53,0.99,0.84,1.47c0.22,0.34,0.47,0.66,0.71,0.99c0.45,0.63,0.9,1.25,1.42,1.98c-0.06,0.15-0.2,0.47-0.23,0.54
	c0.73,0.94,1.37,1.76,1.94,2.49c-0.26,0.66-0.74,1.28-0.59,1.58c0.47,0.93,1.03,1.98,1.85,2.52c0.72,0.47,0.83,0.81,0.99,1.58
	c0.21,1.04,0.91,1.98,1.43,2.95c0.51,0.94,0.56,2.12,1.58,2.81c0.11,0.07-0.16,0.71-0.25,1.08c1.16,0.17,0.31,1.18,0.63,1.56
	c0.49,0.59,0.66,1.15,0.78,1.88c0.12,0.7,0.59,1.4,1.05,1.99c0.77,0.99,0.85,2.22,1.37,3.29c0.53,1.11,1.01,2.24,1.43,3.4
	c0.27,0.76,0.38,1.57,0.59,2.48c-0.23,0.11-0.54,0.26-1.22,0.59c1.61,0.45,1.97,1.16,1.99,2.25c0.01,0.69,0.19,1.4,0.95,1.96
	c0.5,0.37,0.77,1.45,0.67,2.14c-0.27,1.7,0.14,3.07,0.87,4.62c0.96,2.05,1.34,4.37,1.57,6.66c0.09,0.85,0.16,1.77,0.52,2.52
	c0.92,1.86,1.01,3.84,1.17,5.82c0.01,0.1-0.16,0.27-0.12,0.31c0.99,1.3,0.84,2.82,0.86,4.3c0.01,1.15,0.18,2.21,0.77,3.23
	c0.25,0.42-0.1,1.05-0.66,1.53c0.21,0.27,0.63,0.56,0.6,0.8c-0.23,1.85,1.19,3.6,0.28,5.46c1.45,1.12,1.53,1.56,0.88,3.36
	c-0.19,0.53-0.24,1.24-0.04,1.75c0.56,1.44,0.71,2.9,0.67,4.42c-0.02,0.57-0.2,1.22,0.5,1.73c0.26,0.19,0.29,1.15,0.05,1.51
	c-0.54,0.81-0.17,1.25,0.31,1.82c0.37,0.44,0.49,0.89,0.31,1.6c-0.21,0.81-0.47,1.8,0.35,2.68c0.35,0.37,0.16,1.25,0.19,1.89
	c0.04,0.75-0.03,1.52,0.09,2.26c0.35,2.07,0.8,4.13,1.13,6.2c0.07,0.4-0.2,0.86-0.36,1.45c0.78,0.91,0.75,1.85-0.26,3.52
	c1.2,1.39,1.52,3.24,1.38,4.82c-0.25,2.72,0.25,5.32,0.38,7.97c0.03,0.58-0.16,1.18-0.27,1.88c0.17,0.12,0.45,0.32,0.78,0.55
	c-0.66,0.77-0.83,1.54-0.53,2.59c0.29,1.03,0.08,2.19,0.13,3.29c0.02,0.38,0.05,0.81,0.23,1.12c0.83,1.43,0.73,2.19-0.62,3.21
	c0.3,0.53,0.6,1.08,0.98,1.74c-0.91,0.75-0.66,1.9-0.19,2.89c0.31,0.64,0.37,1.14,0.14,1.73c-0.34,0.91,0.26,1.77,0,2.76
	c-0.33,1.25-0.05,2.65-0.12,3.97c-0.02,0.45-0.32,0.88-0.47,1.28c0.87,1.61,0.86,2.98,0.22,4.87c-0.2,0.6,0.01,1.34-0.02,2.01
	c-0.03,0.65-0.4,1.42-0.16,1.93c0.39,0.84,0.13,1.63,0.24,2.41c0.14,0.96,0.03,1.81-0.29,2.68c-0.08,0.21-0.14,0.5-0.05,0.68
	c0.8,1.7,0.5,3.41,0.18,5.15c-0.15,0.8,0,1.64-0.03,2.46c-0.07,1.63-0.18,3.25-0.25,4.88c-0.02,0.41,0.13,0.82,0.11,1.23
	c-0.03,0.75-0.05,1.51-0.23,2.23c-0.17,0.66-0.42,1.2-0.19,1.98c0.51,1.73-0.07,3.49-0.24,5.23c-0.04,0.4-0.52,0.67,0.07,1.1
	c0.21,0.15,0.25,0.8,0.12,1.1c-0.8,1.77-0.61,3.72-1.05,5.55c-0.13,0.55-0.1,1.19,0.03,1.75c0.36,1.6,0.36,3.16-0.23,4.7
	c-0.04,0.11-0.14,0.27-0.1,0.33c0.81,1.2,0.01,2.53,0.25,3.82c0.19,1,0.59,2.28-0.17,3.35c-0.1,0.14-0.24,0.4-0.21,0.43
	c0.91,0.83-0.25,1.91,0.35,2.79c0.13,0.19,0.01,0.59-0.05,0.88c-0.3,1.41-0.64,2.81-0.93,4.22c-0.23,1.15-0.34,2.3-0.39,3.48
	c-0.06,1.23-0.1,2.44-0.01,3.66c0.04,0.52-0.05,1.05-0.07,1.56c-0.31,0.13-0.57,0.23-0.83,0.34c0,0.23-0.01,0.4,0,0.56
	c0.03,0.44,0.18,0.91,0.08,1.32c-0.45,1.81-0.8,3.64-0.95,5.48c-0.12,1.44-0.2,2.84-0.72,4.2c-0.14,0.36-0.04,0.81-0.04,1.22
	c0,1.61,0.01,3.23-0.01,4.84c0,0.2-0.18,0.41-0.31,0.58c-0.86,1.14-0.57,2.63-1.23,3.83c1,0.8-0.04,1.66,0.07,2.5
	c0.11,0.88,0.17,1.84-0.06,2.67c-0.4,1.45-0.5,2.95-0.83,4.41c-0.13,0.57-0.12,1.17-0.28,1.73c-0.35,1.23-0.78,2.44-1.16,3.67
	c-0.09,0.27-0.23,0.58-0.18,0.84c0.17,0.99,0.47,1.97-0.44,2.78c0.91,1.72-1.4,2.88-0.8,4.63c0.15,0.43-0.21,1.3-1.3,1.13
	c0.28,0.4,0.47,0.67,0.73,1.04c-0.43,0.66-1.03,1.39-0.43,2.31c-1.01,1.11-0.59,2.62-1.06,3.92c-0.58,1.64-0.99,3.39-1.6,5.04
	c-1.15,3.09-2.57,6.09-3.62,9.22c-0.61,1.81-1.78,3.28-2.41,5.07c-0.63,1.79-1.64,3.44-2.39,5.19c-0.36,0.83-0.5,1.64-1.22,2.39
	c-0.7,0.72-0.76,2.03-1.18,3.05c-0.46,1.13-1.02,2.22-1.52,3.34c-0.97,2.13-2.47,4-3.07,6.31c-0.06,0.21-0.19,0.42-0.33,0.6
	c-2.05,2.64-2.84,5.99-4.82,8.67c-0.25,1.78-1.82,2.97-2.07,4.78c-0.08,0.58-1.04,0.85-1.03,1.64c-1.34,0.5-1.28,2.01-2.07,2.91
	c-0.49,0.56-0.9,1.2-1.32,1.82c-0.49,0.73-0.53,1.76-1.4,2.26c0.18,1.77-1.57,2.44-2.22,3.79c-1,2.1-2.65,3.88-4.03,5.8
	c-1.4,1.95-2.81,3.89-4.19,5.85c-1.44,2.05-3,4.01-4.51,6.01c-1.41,1.87-2.66,3.86-4.08,5.73c-0.82,1.08-1.82,2.03-2.74,3.03
	c-0.2,0.22-0.49,0.37-0.65,0.61c-1.19,1.92-3.12,3.26-4.27,5.12c-0.82,1.32-2.23,1.94-2.91,3.36c-0.63,1.31-1.66,2.44-2.6,3.57
	c-0.81,0.97-1.75,1.83-2.61,2.77c-0.99,1.09-1.93,2.22-2.92,3.3c-1.26,1.39-2.54,2.76-3.84,4.12c-1.23,1.29-2.44,2.6-3.75,3.8
	c-2.03,1.86-3.82,3.98-5.88,5.77c-2.02,1.77-3.78,3.88-6.01,5.32c-1.23,0.79-2.31,1.82-3.66,2.48c-0.7,0.34-1.07,1.4-1.77,1.69
	c-1.8,0.74-2.87,2.68-4.97,2.85c-1.34,1.34-3.06,2.06-4.72,2.88c-0.29,1.71-2.18,1.43-3.1,2.44c-0.65,0.71-1.77,0.99-2.68,1.46
	c-1.12,0.58-2.23,1.17-3.36,1.72c-0.48,0.24-1.07,0.65-1.49,0.53c-1.15-0.3-1.55,0.59-2.27,1.05c-0.91,0.58-1.93,1.04-2.97,1.33
	c-1.29,0.37-2.66,0.45-3.97,0.77c-0.91,0.22-1.75,0.72-2.66,0.92c-2.72,0.61-5.45,1.13-8.18,1.69c-1.74-0.61-3.18,0.77-4.9,0.68
	c-1.69-0.08-3.4,0.47-5.11,0.63c-5.59,0.52-11.17,0.63-16.73-0.42c-1.56-0.29-3.2-0.19-4.73-0.57c-1.63-0.4-3.23-0.71-4.9-0.64
	c-0.23,0.01-0.47-0.08-0.68-0.17c-1.13-0.48-2.25-0.88-3.55-0.78c-0.74,0.05-1.62-0.12-2.23-0.51c-1.73-1.09-3.75-0.9-5.59-1.46
	c-1.44-0.44-2.86-0.88-3.98-1.9c-0.66-0.61-1.49-0.79-2.24-0.97c-1.99-0.46-3.51-1.89-5.36-2.46c-1.58-0.48-2.54-1.91-4.15-2.21
	c-0.21-0.04-0.38-0.35-0.53-0.56c-0.15-0.2-0.21-0.51-0.39-0.64c-1.48-0.96-3.21-1.46-4.53-2.77c-0.66-0.65-2-0.63-2.62-1.3
	c-1.15-1.26-2.9-1.6-3.96-3.08c-0.77-1.08-2.37-1.52-3.52-2.37c-1.05-0.78-2.09-1.62-2.94-2.6c-1.61-1.86-3.63-3.24-5.32-5.04
	c-1.91-2.04-4.09-3.89-6.1-5.86c-1.42-1.4-2.82-2.84-4.04-4.48c-1.54-2.08-3.64-3.74-5.36-5.7c-1.54-1.75-2.89-3.66-4.33-5.5
	c-0.22-0.28-0.35-0.69-0.63-0.85c-1.4-0.79-1.87-2.39-2.97-3.39c-1.2-1.09-2.15-2.32-3.12-3.59c-0.97-1.27-2.2-2.34-3.24-3.56
	c-0.61-0.71-1.05-1.55-1.6-2.31c-1.36-1.9-2.59-3.92-4.15-5.65c-1.85-2.06-3.3-4.39-4.91-6.62c-2.23-3.09-4.53-6.12-6.62-9.3
	c-0.55-0.83-1.22-1.51-1.75-2.28c-0.54-0.79-0.84-1.75-1.42-2.6c-1.06-1.57-1.85-3.33-2.75-5.01c-0.37-0.69-1.62-0.74-1.36-1.88
	c-1.1-0.47-0.82-1.72-1.39-2.48c-0.57-0.77-0.9-1.63-1.27-2.51c-0.72-1.74-1.79-3.34-2.7-5.01c-0.2-0.36-0.39-0.73-0.53-1.11
	c-0.34-0.88-0.68-1.7-1.38-2.44c-0.66-0.69-0.9-1.78-1.32-2.7c-0.24-0.53-0.45-1.08-0.71-1.61c-0.68-1.38-1.41-2.74-2.06-4.14
	c-0.51-1.1-1.46-2.04-1.33-3.39c-1.05-0.63-0.5-2.32-1.83-2.78c-0.09-0.03-0.19-0.17-0.21-0.27c-0.63-3.04-2.43-5.59-3.48-8.45
	c-0.02-0.06-0.04-0.12-0.07-0.16c-1.21-1.31-1.37-3.11-2.12-4.65c-0.75-1.54-1.22-3.2-1.83-4.81c-0.67-1.77-1.33-3.55-2.07-5.3
	c-0.24-0.56-0.48-1.02-0.41-1.68c0.05-0.48-0.24-1.01-0.39-1.51c-0.15-0.5-0.39-0.98-0.45-1.49c-0.08-0.69-0.44-1.5-0.36-1.96
	c0.14-0.83-0.13-1.31-0.45-1.93c-0.12-0.24,0.21-0.7,0.36-1.14c-0.85-0.19-1.23-0.79-1.1-1.63c0.13-0.82,0.06-1.54-0.58-2.14
	c-0.16-0.15-0.32-0.45-0.28-0.64c0.25-1.39-0.77-2.6-0.44-4.05c0.18-0.79-0.02-1.95-0.52-2.55c-0.68-0.82-0.68-1.7-0.81-2.56
	c-0.28-1.81-0.53-3.62-1.04-5.39c-0.25-0.88-0.26-1.91-0.08-2.81c0.17-0.82-0.54-1.42-0.2-2.29c0.23-0.6-0.11-1.43-0.25-2.15
	c-0.07-0.37-0.28-0.71-0.38-1.08c-0.29-1-0.83-1.93-0.71-3.05c0.13-1.24-0.3-2.49,0.12-3.74c0.1-0.29-0.02-0.69-0.13-1.01
	c-0.36-1.1-0.7-2.14-0.62-3.37c0.07-1.21-0.31-2.46-0.6-3.67c-0.24-1,0.07-2.08-0.54-3.05c-0.16-0.25,0.14-0.78,0.18-0.99
	c-0.34-0.5-0.75-0.86-0.83-1.29c-0.12-0.62-0.02-1.29-0.01-1.94c0.01-0.7,0.04-1.4,0.02-2.09c-0.01-0.29-0.26-0.63-0.17-0.86
	c0.58-1.59-0.43-2.93-0.61-4.39c-0.24-1.92-0.64-3.84-0.61-5.75c0.01-0.76-0.24-1.54-0.12-2.14c0.22-1.04-0.45-2.02,0.08-3.06
	c0.24-0.47-0.07-1.21-0.15-1.83c-0.02-0.15-0.18-0.41-0.14-0.43c1.12-0.78,0.15-1.72,0.11-2.52c-0.05-1.17-0.24-2.32,0.06-3.49
	c0.1-0.39,0.21-0.82,0.15-1.21c-0.3-1.89-0.63-3.78-0.99-5.66c-0.13-0.68-0.62-1.35,0.2-1.94c0.08-0.06-0.03-0.39-0.07-0.59
	c-0.35-1.97-0.81-3.93-0.24-5.94c0.06-0.21,0.15-0.51,0.06-0.65c-1.25-1.85-0.32-3.89-0.53-5.83c-0.13-1.22-0.15-2.45-0.22-3.67
	c-0.11-1.98-0.22-3.95-0.31-5.93c-0.01-0.22,0.02-0.48,0.14-0.65c0.47-0.67,0.39-1.31,0.1-2.03c-0.27-0.67-0.05-3.22,0.16-4.09
	c0.11-0.45,0.11-0.97,0.02-1.42c-0.17-0.8-0.54-1.55-0.08-2.39c0.07-0.13-0.69-0.66-0.63-0.83c0.48-1.27-0.55-2.7,0.43-3.9
	c0.14-0.17,0.32-0.53,0.25-0.63c-0.82-1.11-0.06-2.41-0.48-3.6c-0.29-0.81-0.16-1.78-0.18-2.68c-0.01-0.58,0.16-1.18,0.07-1.74
	c-0.11-0.65-0.03-1.17,0.24-1.79c0.39-0.92,0.64-1.95-0.27-2.8c0.35-0.59,0.71-1.21,1.08-1.82c-1.3-0.84-1.68-1.76-0.93-2.8
	c0.58-0.8,0.59-1.6,0.65-2.44c0.08-1.06,0.18-2.12,0.12-3.17c-0.03-0.6-0.36-1.19-0.57-1.84c0.17-0.11,0.45-0.28,0.53-0.33
	c-0.03-1.02-0.13-1.86-0.06-2.68c0.14-1.58,0.42-3.15,0.56-4.73c0.04-0.49-0.31-1.02-0.27-1.51c0.14-1.63,0.35-3.25,0.62-4.86
	c0.06-0.34,0.51-0.62,0.78-0.92c-1.07-1.96-1.08-2.65-0.05-3.72c-1.16-0.87-0.63-2.09-0.35-3.03c0.19-0.63,0.29-1.19,0.29-1.82
	c0-0.42-0.02-0.88,0.15-1.24c0.69-1.44,0.75-2.92,0.53-4.46c-0.05-0.34-0.09-0.85,0.1-1.03C452.95,371.1,452.2,369.87,451.97,368.65
	z M462.48,478.71c-0.48,1.17-0.34,4.62,0,5.86c0.28,1.03,0.49,2.18,0.31,3.2c-0.17,0.96-0.35,1.89,0.05,2.72
	c0.48,1.01,0.36,1.97-0.01,2.85c-0.42,0.98-0.28,1.88,0.05,2.75c0.49,1.29,0.68,2.6,0.78,3.96c0.09,1.22-0.72,2.52,0.28,3.66
	c0.04,0.04-0.01,0.25-0.07,0.29c-0.78,0.45-0.23,1.08-0.2,1.61c0.03,0.59,0.12,1.22,0.37,1.74c0.42,0.87-0.26,1.95,0.15,2.5
	c0.72,0.99,0.39,1.87,0.34,2.83c-0.02,0.45,0.04,0.92,0.15,1.35c0.28,1.12,0.74,2.2,0.88,3.33c0.12,0.98-0.06,1.97,0.37,2.95
	c0.21,0.49,0.06,1.14,0.06,1.71c0.01,0.45-0.18,1.12,0.04,1.32c1.16,1.05,0.12,2.09,0.13,2.84c0.42,0.89,0.74,1.57,1.06,2.24
	c-0.84,0.59-0.22,1.17-0.02,1.79c0.26,0.82,0.65,1.69,0.6,2.51c-0.11,1.66,0.11,3.26,0.35,4.89c0.15,1.03-0.13,2.27,0.35,3.06
	c0.73,1.17,0.59,2.29,0.57,3.47c-0.01,0.67,0.11,1.31,0.25,1.96c0.22,1.1,1.23,2.14,0.58,3.39c-0.04,0.08,0,0.3,0.06,0.33
	c0.96,0.51,0.42,1.38,0.53,2.09c0.18,1.16,0.42,2.3,0.64,3.45c1.42,0.63,0.96,1.97,1.16,3.07c0.13,0.69,0.29,1.37,0.54,2.03
	c0.23,0.61,0.68,1.14,0.86,1.76c0.69,2.29,1.52,4.52,2.76,6.58c1.09,1.82,1.9,3.74,2.32,5.84c0.19,0.96,0.35,2.17,1,2.72
	c0.93,0.8,1.03,1.72,1.12,2.7c0.11,1.14,0.55,2.01,1.47,2.71c0.34,0.26,0.73,0.78,0.69,1.14c-0.09,0.9,0.45,1.52,0.68,2.28
	c0.5,1.63,1.74,2.88,2.21,4.54c0.27,0.95,0.71,1.91,1.3,2.7c1.47,1.93,1.53,1.89,1.99,4.03c0.2,0.94,0.67,1.61,1.58,1.71
	c0.19,0.82,0.13,1.85,0.55,2.11c1.06,0.67,1.14,1.74,1.57,2.67c0.2,0.42,0.38,1.09,0.7,1.18c1.08,0.29,1.09,1.3,1.53,1.99
	c0.78,1.19,1.08,2.71,2.32,3.21c0.19,0.71,0.23,1.21,0.45,1.62c0.49,0.89,1.18,1.73,1.58,2.59c0.52,1.13,0.84,2.22,2.01,2.87
	c0.31,0.17,0.62,0.7,0.6,1.05c-0.05,0.86,0.56,1.3,1,1.83c0.59,0.72,1.51,1.26,1.86,2.07c0.8,1.87,1.98,3.42,3.34,4.88
	c0.37,0.4,0.52,0.99,0.78,1.49c0.15,0.3,0.28,0.62,0.48,0.9c0.47,0.67,0.96,1.33,1.46,1.98c1.03,1.33,1.79,2.86,3.08,3.99
	c0.25,0.22,0.49,0.48,0.67,0.76c0.64,0.95,1.07,2.13,1.91,2.84c1.44,1.23,2.78,2.45,3.51,4.26c0.31,0.77,0.97,1.4,1.38,2.15
	c0.47,0.85,1.55,1.26,1.66,2.35c2,1.42,3.08,3.63,4.61,5.45c1.8,2.14,3.51,4.35,5.42,6.39c0.27,0.28,0.4,0.68,0.64,0.99
	c0.43,0.55,0.87,1.1,1.35,1.61c0.93,0.99,2.1,1.82,2.78,2.95c0.67,1.12,1.53,1.96,2.45,2.81c1.04,0.96,2.06,1.94,3.08,2.92
	c0.5,0.48,0.99,0.97,1.46,1.49c0.71,0.79,1.39,1.61,2.08,2.42c1.61-0.23,1.94,1.28,2.81,2.06c0.43,0.38,0.81,0.84,1.31,1.1
	c1.62,0.85,2.88,2.15,4.28,3.27c1.13,0.9,1.99,2.12,3.39,2.69c0.71,0.29,1.08,0.93,1.57,1.47c0.5,0.54,1.53,0.58,2.08,1.09
	c1.8,1.68,3.93,2.8,6.12,3.83c0.63,0.3,1.25,0.63,1.87,0.97c1.65,0.9,3.27,1.89,4.96,2.71c2.14,1.04,4.34,1.94,6.52,2.91
	c0.76,0.34,1.58,0.57,2.27,1.02c2.18,1.43,4.62,2,7.13,2.39c2.68,0.41,5.36,0.89,8.06,1.1c1.78,0.13,3.56,0.35,5.35,0.4
	c1.12,0.03,2.27,0.09,3.35,0.35c2.43,0.57,4.91,0.55,7.28,0.16c2.13-0.36,4.28-0.52,6.39-0.69c3.48-0.29,6.94-0.67,10.39-1.18
	c0.88-0.13,1.77-0.26,2.64-0.45c2.12-0.47,4.09-1.31,6.05-2.27c3.89-1.9,8-3.32,11.7-5.63c1.04-0.65,2.14-1.23,3.24-1.77
	c1-0.49,2.05-0.91,3.08-1.34c1.03-0.43,1.35-1.7,2.64-1.96c0.74-0.15,1.28-1.37,2.02-1.51c1.09-0.2,1.02-1.42,2.03-1.66
	c1.12-0.26,1.92-1.18,2.74-2.02c1.24-1.27,2.53-2.58,4.05-3.44c1.37-0.77,2.44-1.68,3.32-2.93c0.16-0.23,0.47-0.52,0.7-0.52
	c1.44,0.02,2.03-1.07,2.66-2.03c0.59-0.91,1.21-1.75,2.23-2.23c0.21-0.1,0.39-0.27,0.56-0.43c1.05-1.04,2.1-2.08,3.15-3.14
	c0.33-0.34,0.72-0.67,0.93-1.07c0.85-1.61,2.18-2.77,3.49-3.97c0.43-0.39,0.75-0.9,1.12-1.35c0.39-0.48,0.79-0.95,1.18-1.43
	c0.37-0.45,0.74-0.9,1.1-1.35c1.43-1.76,2.85-3.53,4.29-5.29c0.15-0.18,0.36-0.32,0.5-0.51c0.28-0.37,0.53-0.76,0.8-1.14
	c0.23-0.31,0.46-0.63,0.71-0.92c0.67-0.75,1.42-1.44,2-2.25c0.54-0.76,1.14-1.47,1.68-2.22c1.01-1.39,1.75-2.98,2.65-4.45
	c0.23-0.37,0.64-0.63,0.97-0.94c0.63-0.59,1.35-0.99,1.76-1.91c0.5-1.12,1.52-2,2.3-2.99c0.97-1.22,2.09-2.36,2.84-3.7
	c0.76-1.36,2.11-2.34,2.39-4c0.06-0.34,0.53-0.61,0.8-0.92c0.21-0.24,0.44-0.47,0.62-0.73c1.21-1.74,2.41-3.48,3.62-5.22
	c0.6-0.87,1.76-1.38,1.64-2.73c-0.03-0.3,0.41-0.85,0.72-0.92c1.18-0.27,1.35-1.4,1.66-2.16c0.22-0.53,0.57-0.91,0.81-1.38
	c0.54-1.07,1.53-1.97,1.33-3.3c0.47-0.39,1.16-0.68,1.32-1.15c0.44-1.32,1.47-2.31,1.85-3.66c0.16-0.56,1.19-0.33,1.3-1.15
	c0.06-0.46,0.38-0.87,0.46-1.33c0.25-1.42,2.17-2.07,1.74-3.8c-0.02-0.08,0.24-0.34,0.36-0.33c1.04,0.05,1.17-0.87,1.24-1.45
	c0.14-1.16,0.64-2.12,1.19-3.09c0.49-0.86,1.01-1.71,1.56-2.53c0.78-1.17,1.09-2.55,1.81-3.76c0.68-1.14,1.7-2.4,1.63-3.56
	c-0.1-1.88,1.79-2.12,2.13-3.47c0.04-0.16,0.05-0.33,0.07-0.5c0.1-0.89,0.19-1.77,0.29-2.68c0.79-0.11,1.13-0.69,1.33-1.37
	c0.31-1.06,0.51-2.15,0.89-3.18c0.46-1.25,0.51-2.62,1.52-3.72c0.77-0.85,1.19-2.05,1.66-3.14c0.94-2.17,1.84-4.37,2.69-6.57
	c0.2-0.53,0.15-1.15,0.25-1.72c0.15-0.84,0.06-2.09,0.55-2.41c0.85-0.55,0.73-1.31,0.95-1.95c0.5-1.46-0.09-3.15,0.84-4.55
	c0.03-0.04,0-0.12-0.02-0.18c-0.19-0.61,0.09-1.11,0.24-1.68c0.35-1.37,1.16-2.71,0.55-4.22c-0.09-0.23,0.09-0.57,0.09-0.86
	c0.01-0.77,0.72-1.44,0.69-2c-0.08-1.59,0.39-3.09,0.47-4.64c0.11-2.18,0.22-4.34,1.13-6.37c0.06-0.13,0.07-0.41,0-0.45
	c-0.83-0.51-0.28-0.98,0.01-1.48c0.23-0.39,0.66-0.9,0.56-1.21c-0.4-1.27,0.07-2.45,0.12-3.66c0.07-1.59,0.54-3.09,0.66-4.65
	c0.04-0.49-0.01-1.04,0.19-1.47c1.04-2.21,0.16-4.73,1.19-6.93c0.04-0.09-0.03-0.23-0.04-0.35c-0.02-0.5-0.11-1.01-0.03-1.49
	c0.21-1.28,1.17-2.51,0.17-3.85c-0.05-0.07,0.14-0.28,0.17-0.44c0.11-0.57,0.34-1.15,0.27-1.7c-0.25-1.99-0.06-3.88,0.7-5.75
	c0.32-0.78,0.41-1.63,0.07-2.57c-0.37-1-0.65-2.12,0.01-3.21c0.18-0.29,0.12-0.77,0.08-1.15c-0.06-0.66-0.31-1.33-0.25-1.97
	c0.14-1.36,0.47-2.69,0.67-4.04c0.09-0.62,0.06-1.26,0.06-1.89c0.01-0.79,0-1.57,0-2.56c0.03-0.02,0.34-0.16,0.73-0.34
	c-0.33-1.03-0.06-2.1-0.1-3.13c-0.05-1.3-0.1-2.54,0.12-3.85c0.27-1.64,0.24-3.33-0.28-5c-0.2-0.66,0.01-1.47,0.14-2.2
	c0.13-0.72,0.23-1.3-0.12-2.08c-0.27-0.6,0.27-1.55,0.42-2.36c0.03-0.16,0-0.41-0.11-0.51c-0.86-0.87-0.4-1.82-0.26-2.79
	c0.11-0.78-0.04-1.61-0.11-2.41c-0.09-1.1,0.1-2.09,0.98-2.85c-0.76-1.46-1.04-5.92-0.3-7.75c0.52-1.27-0.19-2.38-0.15-3.57
	c0.02-0.73-0.28-1.47-0.3-2.21c-0.03-0.9-0.04-1.84,0.17-2.7c0.22-0.92,0.57-1.77-0.18-2.6c-0.03-0.04,0.03-0.22,0.1-0.29
	c1.14-1.16,0.35-2.08-0.22-2.93c0.22-0.56,0.58-1.08,0.62-1.63c0.11-1.33,0.1-2.69-0.24-3.97c-0.14-0.52-0.1-0.77,0.12-1.25
	c0.44-0.92,0.69-1.95-0.13-2.89c-0.17-0.2-0.21-0.55-0.23-0.84c-0.07-0.99,0.17-2.13-0.24-2.94c-0.53-1.05,0.91-1.8,0.11-2.7
	c0.68-0.79-0.65-1.24-0.44-1.58c0.75-1.16,0.32-2.09-0.13-3.15c-0.19-0.43-0.2-1.21,0.06-1.51c0.98-1.09,0.24-1.97-0.2-2.79
	c0.25-0.46,0.44-0.81,0.61-1.13c-0.28-0.31-0.47-0.53-0.68-0.76c0.29-0.46,0.84-0.68,0.5-1.51c-0.46-1.13-0.22-2.39,0.35-3.51
	c-1.16-0.93-0.81-2.18-0.78-3.32c0.03-1.06,0.22-2.12-0.87-2.82c-0.08-0.05-0.1-0.21-0.2-0.46c0.23-0.65,0.51-1.4,0.8-2.19
	c-0.63-0.72-0.63-0.72-0.43-1.98c0.05-0.34,0.2-0.72,0.11-1.02c-0.18-0.6-0.57-1.13-0.76-1.73c-0.2-0.64,0.93-1.11,0.28-1.94
	c-0.24-0.31-0.11-0.9-0.17-1.36c-0.16-1.29-0.15-2.63-0.55-3.84c-0.38-1.15-0.54-2.14,0.2-2.98c-0.38-1.31-0.72-2.47-1.05-3.63
	c-0.01-0.05,0.01-0.12,0.05-0.16c0.57-0.64,0.06-1.21-0.11-1.81c-0.58-2.05-1.26-4.07-0.7-6.26c0.11-0.42,0.07-1.14-0.19-1.34
	c-0.9-0.67,0-1.8-0.75-2.44c0.84-0.94,0.23-1.84-0.01-2.79c-0.13-0.53,0.11-1.16,0.12-1.74c0-0.38,0-0.99-0.21-1.09
	c-0.53-0.27-0.5-0.68-0.6-1.12c-0.44-1.82-0.79-3.63-0.86-5.52c-0.05-1.24-0.42-2.46-0.64-3.69c-0.39-2.21-0.26-4.51-1.16-6.63
	c-0.09-0.22-0.21-0.46-0.2-0.69c0.08-2.48-1.06-4.66-1.65-6.97c-0.35-1.36-0.7-2.74-0.81-4.13c-0.14-1.85-0.7-3.59-1.29-5.28
	c-0.29-0.83,0-2.14-1.33-2.46c-0.02,0-0.02-0.11-0.03-0.19c0.18-0.27,0.36-0.56,0.52-0.8c-0.65-1.41-1.28-2.75-1.89-4.1
	c-0.08-0.19-0.14-0.44-0.08-0.63c0.28-0.86-0.21-1.57-0.67-2.06c-0.82-0.88-0.92-1.9-1.13-2.97c-0.24-1.27-0.43-2.7-1.17-3.67
	c-0.64-0.84-0.83-1.73-1.23-2.6c-0.4-0.86-1.04-1.62-1.54-2.44c-0.22-0.35-0.33-0.77-0.53-1.13c-0.58-1.04-0.66-2.34-1.67-3.17
	c-0.23-0.19-0.27-0.62-0.37-0.94c-0.17-0.57-0.22-1.2-0.5-1.7c-0.99-1.8-2.03-3.57-3.11-5.31c-0.78-1.27-1.69-2.46-2.48-3.72
	c-0.78-1.25-1.28-2.72-2.25-3.78c-0.98-1.08-1.73-2.3-2.62-3.42c-1.68-2.11-3.37-4.2-5.08-6.29c-0.52-0.63-1.09-1.22-1.64-1.83
	c-1.27-1.39-2.98-2.25-4.1-3.88c-1.03-1.51-2.49-2.75-3.85-4.01c-1.51-1.4-3.11-2.69-4.67-4.04c-1.7-1.47-3.26-3.14-5.1-4.4
	c-2.47-1.69-4.79-3.55-7.13-5.39c-0.65-0.51-1.18-0.93-1.49-1.66c-2.05-0.1-3.44-1.55-5.02-2.55c-1.47-0.93-2.78-2.11-4.19-3.16
	c-0.57-0.43-1.15-1.02-1.79-1.14c-2.21-0.42-3.86-1.88-5.75-2.89c-1.39-0.75-2.74-1.59-4.1-2.39c-1.67-0.98-3.8-1-5.21-2.51
	c-0.11-0.12-0.33-0.12-0.5-0.18c-0.82-0.32-1.63-0.66-2.45-0.96c-1.49-0.54-2.73-1.74-4.46-1.63c-0.11,0.01-0.25-0.02-0.34-0.08
	c-2.07-1.33-4.49-1.68-6.78-2.39c-0.61-0.19-1.4,0.06-1.94-0.22c-1.99-1.05-4.15-1.05-6.18-1.36c0,2.52,0.01,4.94-0.01,7.35
	c-0.01,0.92-0.41,1.83,0.09,2.77c0.12,0.22-0.16,0.67-0.3,1c-0.09,0.21-0.26,0.39-0.4,0.58c1.06,0.74,0.01,1.37-0.21,1.95
	c0.31,0.29,0.52,0.49,0.73,0.68c-0.07,0.12-0.11,0.25-0.2,0.32c-0.73,0.54-1.42,1.02-0.16,1.82c0.23,0.14,0.1,0.96,0.02,1.45
	c-0.05,0.31-0.47,0.62-0.43,0.88c0.41,2.21,0.1,4.38-0.13,6.57c-0.14,1.3-0.2,2.62-0.12,3.93c0.09,1.46-0.42,2.82-0.36,4.31
	c0.12,2.95,0.74,6-0.75,8.84c-0.1,0.19-0.03,0.47-0.06,0.7c-0.27,2.24,0.49,4.56-0.54,6.77c-0.22,0.47,0.45,1.46,0.19,1.77
	c-1.03,1.22,0.61,3.05-1.02,4.06c-0.09,0.06,0.07,0.56,0.16,0.83c0.07,0.22,0.33,0.42,0.31,0.61c-0.08,0.88-0.04,1.83-0.4,2.59
	c-0.42,0.89,0.13,1.54,0.16,2.3c0.01,0.23-0.07,0.48-0.17,0.69c-0.74,1.56-1.17,2.95-1.15,4.15c0.01,0.7,0.35,1.41,0.25,2.08
	c-0.2,1.32-0.64,2.57-0.55,3.96c0.11,1.65-1.02,3.28-0.18,4.99c0.07,0.14-0.15,0.42-0.21,0.64c-0.15,0.55-0.2,1.14-0.42,1.66
	c-0.81,1.83,0.38,4.05-1.14,5.74c-0.08,0.09,0.05,0.34,0.05,0.51c0.04,1.93,0.13,3.83-0.61,5.71c-0.26,0.67-0.92,1.52-0.15,2.34
	c-0.95,1.89,0.22,4.26-1.37,6c-0.11,0.12-0.12,0.34-0.14,0.52c-0.23,1.75-0.43,3.51-0.67,5.26c-0.1,0.75-0.26,1.49-0.41,2.23
	c-0.22,1.1-0.63,2.19-0.64,3.29c-0.01,0.78-0.1,1.44-0.57,1.99c-0.59,0.69,0.17,1.32-0.01,1.96c-0.03,0.11-0.14,0.19-0.21,0.29
	c-0.42,0.58-0.74,1.14-0.52,1.96c0.12,0.44,0.01,1.15-0.29,1.46c-1.3,1.36-0.45,3.39-1.58,4.77c-0.03,0.04,0,0.12-0.02,0.18
	c-0.25,0.91-0.25,1.95-0.54,2.76c-0.82,2.29-1.57,4.57-1.89,6.99c-0.04,0.28-0.24,0.53-0.34,0.8c-0.19,0.5-0.35,1.01-0.56,1.5
	c-0.23,0.51-0.56,0.98-0.76,1.5c-0.56,1.47-0.87,3.02-1.25,4.53c-0.54,2.16-1.14,4.28-1.95,6.36c-0.95,2.44-1.69,4.96-2.55,7.44
	c-0.37,1.06-0.95,2.06-1.25,3.14c-0.71,2.54-1.3,5.1-2.49,7.48c-0.46,0.92-0.57,2.01-0.92,3c-0.82,2.3-1.66,4.59-2.53,6.86
	c-0.62,1.61-1.27,3.22-2.01,4.77c-0.19,0.41-0.73,0.78-1.18,0.9c-0.69,0.19-1.06-0.39-1.34-0.94c-0.11-0.21-0.19-0.44-0.28-0.66
	c-0.8-1.99-1.62-3.97-2.39-5.97c-0.7-1.83-1.54-3.64-1.92-5.54c-0.28-1.38-0.74-2.56-1.47-3.71c-0.25-0.39-0.35-0.89-0.49-1.34
	c-0.71-2.24-1.36-4.49-2.11-6.71c-1.66-4.87-3.53-9.67-4.9-14.63c-0.29-1.05-1.16-2.19-0.94-3.09c0.3-1.23-0.26-2.06-0.7-2.83
	c-0.8-1.38-1.41-2.75-1.52-4.34c-0.03-0.46-0.19-0.91-0.35-1.35c-0.49-1.43-1.02-2.86-1.51-4.29c-0.07-0.2,0.04-0.46,0.02-0.68
	c-0.02-0.31-0.03-0.64-0.13-0.93c-0.36-0.99-1.16-2.02-1.04-2.94c0.13-1.01-0.3-1.68-0.51-2.49c-0.18-0.71-0.72-1.43-0.61-2.07
	c0.13-0.77-0.26-1.21-0.45-1.8c-0.19-0.61-0.11-1.29-0.25-1.92c-0.36-1.6-0.85-3.17-1.15-4.78c-0.29-1.56-0.39-3.15-0.61-4.72
	c-0.18-1.33-0.05-2.89-0.71-3.94c-1.03-1.66-0.61-3.43-1.08-5.07c-0.25-0.89,0.2-1.66-0.09-2.47c-0.32-0.9-0.57-1.82-0.85-2.73
	c-0.08-0.27-0.24-0.55-0.23-0.82c0.07-1.7,0.43-3.41-0.51-5.03c-0.21-0.37-0.06-0.93-0.12-1.41c-0.19-1.75,0.03-3.58-0.89-5.02
	c0.11-0.82,0.43-1.57,0.24-2.15c-0.74-2.25-0.11-4.69-1.05-6.9c-0.16-0.38,0.1-0.93,0.1-1.4c0-0.93,0.07-1.89-0.12-2.79
	c-0.2-0.95-0.69-1.84-0.98-2.77c-0.09-0.28,0.07-0.64,0.15-0.96c0.05-0.21,0.27-0.44,0.22-0.61c-0.42-1.5-0.72-2.99-0.26-4.54
	c0.06-0.21,0.04-0.58-0.1-0.68c-1.48-1.1,0.13-2.87-0.9-4.05c0.48-2.34-0.84-4.59-0.3-6.99c0.26-1.15-0.37-2.37-0.67-3.55
	c-0.39-1.56-0.23-3.26-0.28-4.9c-0.05-1.7,0.34-3.39-0.08-5.1c-0.28-1.15-0.33-2.37-0.37-3.57c-0.04-1.13,0.39-2.4,0.02-3.38
	c-0.57-1.51-0.1-2.91-0.15-4.35c-0.02-0.62,0.29-1.22-0.35-1.79c-0.22-0.19-0.55-0.98,0.09-1.42c1.06-0.73,0.44-1.22-0.23-1.73
	c-0.07-0.05-0.06-0.21-0.1-0.33c0.19-0.22,0.38-0.44,0.6-0.7c-0.2-0.34-0.52-0.67-0.57-1.05c-0.05-0.3,0.42-0.8,0.3-0.96
	c-1.02-1.41-0.27-2.97-0.4-4.44c-0.21-2.37-0.06-4.77-0.06-7.18c-0.81,0.1-1.67,0.26-2.53,0.32c-1.96,0.13-3.71,1.06-5.64,1.38
	c-1.25,0.2-2.63,0.33-3.86,1.09c-1.22,0.75-2.74,1.02-4.14,1.46c-0.43,0.13-1.08-0.06-1.33,0.19c-1.85,1.85-4.8,1.62-6.6,3.53
	c-0.13,0.14-0.47,0.06-0.69,0.15c-0.6,0.22-1.23,0.42-1.79,0.73c-1.96,1.07-3.9,2.17-5.83,3.28c-0.96,0.55-1.82,1.4-2.85,1.69
	c-1.55,0.44-3,1.06-4.27,1.97c-1.47,1.06-2.99,2.02-4.39,3.21c-1.35,1.15-2.84,2.49-4.88,2.45c-0.2,0.53-0.39,1.03-0.48,1.27
	c-0.51,0.22-0.89,0.3-1.16,0.52c-1.75,1.35-3.47,2.74-5.21,4.1c-1.69,1.32-3.45,2.55-5.07,3.94c-1.92,1.65-3.61,3.57-5.59,5.13
	c-1.47,1.15-2.63,2.56-3.95,3.84c-1.01,0.98-1.8,2.24-2.92,3.06c-1.2,0.87-2.35,1.71-3.19,2.94c-0.5,0.73-0.94,1.61-1.63,2.09
	c-1.67,1.16-2.42,3.01-3.67,4.48c-0.68,0.8-1.06,1.91-1.84,2.56c-0.75,0.62-1.19,1.32-1.58,2.14c-0.22,0.48-0.53,0.92-0.82,1.36
	c-1.07,1.64-2.2,3.25-3.23,4.92c-1.08,1.75-2.19,3.49-3.07,5.34c-0.64,1.35-0.72,2.96-1.94,4.03c-0.52,2.73-2.88,4.62-3.39,7.36
	c-0.01,0.05-0.05,0.11-0.1,0.15c-0.88,0.64-0.83,1.68-1.18,2.57c-0.63,1.64-0.4,3.59-1.84,4.94c-0.31,0.29-0.61,0.9-0.52,1.26
	c0.31,1.21-0.55,1.92-0.89,2.87c-0.36,1.01-1.43,2.07-0.4,3.28c-0.34,0.28-0.81,0.47-0.93,0.79c-0.42,1.09-0.84,2.21-1.04,3.35
	c-0.28,1.63-0.91,3.17-0.92,4.87c-0.01,1.03-0.37,2.07-0.67,3.08c-0.67,2.3-1.71,4.51-1.66,6.98c0.01,0.29-0.03,0.61-0.15,0.88
	c-1.3,3-0.92,6.31-1.73,9.4c-0.42,1.58-0.42,3.26-0.67,4.89c-0.13,0.82-0.09,1.73-0.93,2.32c-0.19,0.13-0.26,0.72-0.14,0.97
	c0.47,0.91,0.24,1.78-0.15,2.58c-0.3,0.62-0.13,1.07,0,1.67c0.17,0.76,0.22,1.84-0.19,2.38c-0.58,0.75-0.44,1.39-0.42,2.15
	c0.03,0.93-0.14,1.87-0.08,2.8c0.12,1.83-1.45,3.39-0.82,5.29c0.03,0.1,0.02,0.3-0.04,0.34c-0.71,0.45-0.46,1.12-0.51,1.76
	c-0.04,0.43-0.34,0.83-0.4,0.95c0.23,0.87,0.76,1.79,0.52,2.11c-0.86,1.13-0.43,2.47-0.87,3.66c-0.41,1.1-0.26,2.41-0.34,3.63
	c-0.01,0.1,0.07,0.24,0.15,0.31c0.51,0.42,0.35,0.91-0.01,1.23c-0.72,0.64-0.55,1.48-0.36,2.12c0.28,0.93,0.32,1.63-0.28,1.98
	c0.25,1.02,0.45,1.83,0.64,2.63c-0.49,0.46-0.87,0.83-0.99,0.94c-0.1,1.72,0.21,3.35-0.38,4.54c-0.78,1.58,0.72,2.95-0.1,4.32
	c-0.4,0.66-0.06,0.98,0.39,1.34c0.06,0.05,0.05,0.19,0.08,0.29c-0.24,0.19-0.46,0.38-0.73,0.6c0.24,0.44,0.46,0.83,0.69,1.22
	c-0.67,0.8-0.89,1.57-0.39,2.62c0.3,0.62,0.39,1.72,0.04,2.19c-0.8,1.06-0.26,1.81,0.15,2.67c-0.61,0.6-0.51,0.61-0.59,1.42
	c-0.12,1.14,0.45,2.2,0.19,3.35c-0.24,1.08-0.07,2.33-0.56,3.26c-0.49,0.93-0.44,1.66-0.17,2.51c0.12,0.38,0.4,0.77,0.38,1.14
	c-0.04,0.78-0.35,1.56-0.33,2.34c0.03,1.21-0.51,2.55,0.43,3.35c-0.24,0.99-0.5,1.8-0.59,2.62c-0.03,0.26,0.42,0.56,0.43,0.57
	c-0.1,0.86-0.26,1.45-0.22,2.03c0.1,1.36,0.36,2.72,0.42,4.08c0.03,0.6-0.48,1.25-0.39,1.82c0.18,1.15-0.74,2.17-0.12,3.39
	c0.83,1.64,0.32,3.46,0.29,5.21c-0.02,0.9-0.24,1.8-0.38,2.84c0.61,0.65,1.14,1.65,0.77,2.68c-0.33,0.93-0.12,1.74-0.02,2.6
	c0.07,0.58,0.34,1.31,0.11,1.73c-0.67,1.2-0.85,2.3-0.04,3.47c0.05,0.07,0.02,0.28-0.04,0.33c-0.87,0.74-0.15,1.51-0.07,2.28
	c0.06,0.57,0.18,1.18,0.07,1.72c-0.19,0.89-0.43,1.73-0.33,2.68c0.09,0.83-0.24,1.68-0.01,2.54c0.19,0.71,0.59,1.57,0.36,2.16
	c-0.62,1.62,0.38,3.23-0.3,4.77C461.88,478.43,462.18,478.57,462.48,478.71z M636.75,248.7c0.19-0.75,0.33-1.38,0.51-1.99
	c0.6-2.01-0.21-4.1,0.39-6.13c0.25-0.84,0.28-1.74,0.36-2.62c0.05-0.57,0.07-1.15-0.01-1.71c-0.2-1.48-0.28-2.92-0.14-4.44
	c0.18-1.91-0.09-3.85-0.13-5.78c-0.02-0.7,0.03-1.41,0.09-2.11c0.03-0.33,0.26-0.67,0.21-0.97c-0.37-2.3,0.13-4.62-0.24-6.96
	c-0.29-1.88,0.21-3.88,0.36-5.83c0.06-0.8,0.32-1.54-0.19-2.4c-0.34-0.57-0.39-1.69-0.04-2.23c0.83-1.29-0.19-2.43,0-3.62
	c0.13-0.81,0.32-1.63,0.28-2.43c-0.05-0.77-0.37-1.51-0.56-2.27c-0.01-0.05,0.04-0.11,0.04-0.17c-0.01-0.98,0.26-2.08-0.09-2.92
	c-0.46-1.12-0.36-1.93,0.33-2.8c0.04-0.05-0.1-0.21-0.11-0.32c-0.31-2.35-0.65-4.7-0.89-7.05c-0.19-1.85-0.1-3.75-0.44-5.57
	c-0.27-1.42,0.16-2.97-0.76-4.27c-0.09-0.13-0.09-0.36-0.05-0.52c0.38-1.39-0.17-2.64-0.47-3.95c-0.21-0.92-0.8-1.87-0.24-2.94
	c0.17-0.32-0.12-0.89-0.22-1.35c-0.06-0.27-0.31-0.6-0.22-0.78c0.37-0.73-0.09-1.24-0.33-1.83c-0.22-0.54-0.4-1.11-0.48-1.69
	c-0.14-1.06-0.11-2.15-0.31-3.2c-0.2-1.06-0.73-2.07-0.86-3.14c-0.24-2.01-1.11-3.87-1.17-5.92c-0.03-1.1-0.38-2.24-0.67-3.27
	c-0.39-1.41-0.87-2.83-1.14-4.26c-0.28-1.45-1.48-2.67-1.06-4.28c0.02-0.07-0.15-0.18-0.19-0.29c-0.26-0.59-0.54-1.18-0.76-1.78
	c-0.95-2.61-0.85-5.46-2.04-8.06c-0.92-2-1.3-4.25-1.8-6.42c-0.38-1.65-0.72-3.31-1.46-4.84c-0.77-1.58-0.49-3.45-1.48-4.98
	c-0.4-0.62-0.82-1.41-0.78-2.11c0.09-1.91-1.5-3.2-1.62-4.99c-1.61-1.83-1.75-4.29-2.56-6.44c-0.99-2.61-2.42-4.94-3.54-7.59
	c-0.31,0.73-0.43,1.35-0.79,1.8c-1.8,2.26-2.12,5.2-3.55,7.62c-0.08,0.14-0.07,0.34-0.12,0.51c-0.39,1.25-0.53,2.69-1.25,3.69
	c-0.51,0.7-0.03,1.54-0.76,2.06c-0.85,0.61-0.92,1.59-1.05,2.55c-0.07,0.51-0.29,1.01-0.48,1.5c-0.38,0.97-1,1.9-1.13,2.89
	c-0.21,1.58-0.59,3.07-1.25,4.51c-0.26,0.58-0.48,1.19-0.64,1.81c-0.44,1.64-0.8,3.3-1.26,4.94c-0.5,1.77-1.12,3.51-1.6,5.28
	c-0.32,1.17-0.62,2.39-0.68,3.59c-0.11,2.32-1.95,4.17-1.66,6.56c-0.95,1.02-0.75,2.45-1.24,3.6c-0.71,1.66-1.06,3.42-1.36,5.11
	c-0.46,2.55-1.07,5.07-1.6,7.6c-0.19,0.89-0.74,1.76-0.71,2.63c0.06,1.95-0.15,3.79-1.02,5.54c-0.12,0.24-0.23,0.55-0.17,0.78
	c0.15,0.56,0.1,1-0.22,1.51c-0.19,0.31-0.1,0.8-0.11,1.22c-0.01,0.57,0.19,1.23-0.03,1.71c-1.06,2.31-0.29,4.96-1.42,7.23
	c-0.02,0.05-0.01,0.12-0.01,0.17c-0.06,1.51-0.07,3.02-0.19,4.53c-0.24,2.96-0.54,5.93-0.84,8.89c-0.06,0.56-0.28,1.11-0.36,1.68
	c-0.03,0.22,0.15,0.46,0.21,0.69c0.14,0.55,0.55,1.28,0.34,1.63c-0.56,0.94-0.47,1.79-0.37,2.8c0.08,0.78,0.28,1.68-0.33,2.5
	c-0.25,0.33-0.1,0.98-0.1,1.48c0.01,1.14,0.29,2.37-0.04,3.39c-0.2,0.63-0.3,0.99-0.03,1.57c0.19,0.4,0.25,0.9,0.22,1.34
	c-0.08,0.94-0.4,1.88-0.36,2.82c0.05,1.33,0.29,2.63,0.26,3.98c-0.04,2.1,0.23,4.21,0.11,6.3c-0.1,1.86-0.29,3.69,0.3,5.51
	c0.07,0.23-0.17,0.54-0.19,0.82c-0.07,1.26-0.09,2.52-0.17,3.77c-0.14,2.12,0.57,4.25-0.07,6.38c-0.15,0.49-0.17,1.06-0.1,1.56
	c0.32,2.06,0.7,4.09,0.6,6.22c-0.07,1.59-0.2,3.31,0.68,4.55c-0.24,0.85-0.77,1.82-0.53,2.06c0.81,0.85,0.2,1.67,0.25,2.48
	c0.04,0.62-0.24,1.35-0.01,1.86c0.99,2.14,0.53,4.57,1.42,6.72c0.08,0.2-0.17,0.53-0.21,0.8c-0.07,0.56-0.29,1.06,0.04,1.7
	c0.25,0.47,0.14,1.24-0.04,1.8c-0.33,1.02-0.08,1.84,0.58,2.55c-0.24,0.37-0.42,0.66-0.59,0.91c0.41,0.81,1.03,1.37,0.72,2.47
	c-0.24,0.86,0.26,1.92,0.41,2.89c0.06,0.4,0.2,0.88,0.05,1.2c-0.37,0.81-0.22,1.66,0.18,2.23c0.94,1.35-0.44,3.06,0.82,4.29
	c0.08,0.08-0.12,0.41-0.16,0.64c-0.07,0.36-0.25,0.77-0.14,1.08c0.27,0.77,0.35,1.53,0.4,2.34c0.05,0.9-0.03,1.81,0.66,2.63
	c0.26,0.31-0.05,1.09-0.09,1.66c-0.06,0.86-0.44,1.87-0.12,2.57c0.73,1.62,0.57,3.48,1.52,5c0.09,0.14,0.11,0.36,0.07,0.52
	c-0.25,1.13,0.25,2.28,0.15,3.28c-0.24,2.34,0.38,4.41,1.05,6.54c0.14,0.44,0.13,0.93,0.16,1.4c0.08,1.15,0.09,2.31,0.22,3.45
	c0.06,0.53,0.65,1.28,0.47,1.5c-0.69,0.86,0.42,1.13,0.42,1.72c0,0.35,0.32,0.82,0.18,1.03c-0.59,0.89,0.17,1.63,0.17,2.44
	c0,0.83,0.05,1.66,0.12,2.49c0.11,1.19,1.23,2.19,0.65,3.5c0.68,0.92,0.3,2.11,0.68,3.02c0.39,0.93,0.75,1.79,0.78,2.81
	c0.05,1.67,0.4,3.24,1.01,4.85c0.6,1.58-0.17,3.53,1.05,5.06c0.03,0.04,0.04,0.12,0.02,0.17c-0.59,1.67,0.51,3.12,0.65,4.71
	c0.2,2.29,1.47,4.33,1.72,6.68c0.21,1.94,0.97,3.82,1.48,5.72c0.03,0.11,0.04,0.25-0.01,0.34c-0.49,1.07,0.23,1.95,0.46,2.9
	c0.15,0.63,0.58,1.23,0.59,1.84c0.04,2.74,1.5,5.24,1.26,8.03c-0.05,0.59,0.42,1.22,0.56,1.85c0.35,1.59,0.6,3.21,0.99,4.79
	c0.48,1.95,1.14,3.85,1.59,5.81c0.68,2.94,1.24,5.91,1.84,8.87c0.29,1.41,0.57,2.81,0.86,4.22c0.12,0,0.24,0,0.37-0.01
	c0.33-1.55,0.66-3.11,1-4.66c1.01-4.5,1.89-9.02,3.07-13.48c0.77-2.92,1.83-5.83,1.63-8.95c-0.02-0.26,0.27-0.52,0.34-0.8
	c0.3-1.26,0.6-2.51,0.86-3.78c0.21-1.02,0.33-2.07,0.56-3.08c0.48-2.16,1.01-4.31,1.53-6.47c0.16-0.65,0.34-1.3,0.48-1.96
	c0.31-1.54,0.44-3.14,0.94-4.61c0.7-2.06,1.16-4.15,1.5-6.28c0.12-0.76,0.2-1.53,0.35-2.28c0.17-0.85,0.45-1.68,0.59-2.54
	c0.14-0.83-0.11-1.85,0.27-2.5c1-1.7,0.94-3.47,0.93-5.3c0-0.39,0.1-0.99,0.35-1.12c0.65-0.34,0.58-0.82,0.57-1.36
	c-0.02-0.83-0.06-1.65,0.49-2.38c0.15-0.2,0.1-0.56,0.14-0.85c0.06-0.5,0.08-1,0.19-1.48c0.17-0.74,0.74-1.58,0.53-2.17
	c-0.21-0.63-0.01-1.08,0.01-1.61c0.04-0.86,0.57-1.67,0.22-2.61c-0.12-0.32,0.04-0.88,0.27-1.18c0.71-0.97,0.35-2.15,0.68-3.21
	c0.41-1.34,0.18-2.87,0.31-4.31c0.05-0.56,0.39-1.09,0.55-1.64c0.34-1.18,0.91-2.27,0.63-3.61c-0.17-0.81,0.16-1.72,0.23-2.59
	c0.04-0.53,0.02-1.06,0.01-1.59c-0.01-0.35-0.21-0.83-0.05-1.02c0.83-0.98,0.58-2.26,1.03-3.37c0.56-1.36,0.9-2.91,0.35-4.47
	c-0.16-0.47-0.26-1.23-0.01-1.54c0.68-0.83,0.68-1.84,0.58-2.67c-0.17-1.33,1.28-2.58,0.11-3.91c-0.1-0.11,0.14-0.53,0.24-0.8
	c0.12-0.32,0.45-0.72,0.35-0.92c-0.54-1.12,0.23-2.03,0.4-3.02c0.06-0.34,0.31-0.75,0.2-1.01c-0.45-1.04-0.1-1.98,0.1-2.98
	c0.16-0.77,0.01-1.6,0.09-2.39c0.12-1.12,0.91-2.14,0.48-3.34c0.66-0.64,0.44-1.38,0.31-2.15c-0.1-0.59-0.24-1.29-0.03-1.8
	c0.29-0.69,0.21-1.23-0.05-1.85c-0.08-0.2-0.22-0.5-0.14-0.64c0.78-1.32,0.46-2.85,0.81-4.26c0.44-1.79,1.19-3.62,0.46-5.54
	c-0.08-0.21-0.12-0.59,0-0.69C637.96,250.04,637.26,249.31,636.75,248.7z"/>
<path d="M678.29,462.45c-0.59,0.04-1.22-0.02-1.78,0.14c-0.97,0.28-1.86,0.03-2.79-0.13c-1.33-0.23-2.44-1.23-3.91-1.02
	c-0.32,0.05-0.7-0.41-1.06-0.61c-0.87-0.5-1.8-0.9-2.6-1.49c-0.98-0.74-1.89-1.59-2.76-2.47c-0.77-0.78-1.33-1.77-2.16-2.47
	c-0.95-0.79-1.53-1.72-1.86-2.88c-0.23-0.83-0.59-1.58-1.08-2.33c-0.56-0.85-0.76-1.94-1.11-2.93c-0.14-0.39-0.21-0.84-0.45-1.15
	c-1.41-1.76-1.49-3.89-1.72-5.98c-0.02-0.22,0.09-0.56-0.03-0.66c-0.8-0.69-0.38-1.71-0.67-2.44c-1-2.49-0.11-5.15-0.93-7.65
	c-0.28-0.84,0.03-1.88,0.09-2.82c0.11-1.86,0.24-3.74,0.38-5.59c0.17-2.29,0.63-4.55,0.67-6.84c0.03-1.77,0.08-3.55,0.29-5.3
	c0.3-2.58,0.64-5.17,1.17-7.71c0.33-1.59,1.14-3.08,1.58-4.66c1.08-3.87,3.17-7.2,5.38-10.47c0.4-0.59,1.21-0.89,1.67-1.45
	c1.11-1.36,2.48-2.28,4.13-2.84c1-0.34,1.78-1.06,2.82-1.45c3.03-1.14,6.04-1.73,9.25-1.32c0.69,0.09,1.4-0.02,2.08,0.07
	c2.85,0.35,4.95,2.2,7.21,3.73c2.58,1.74,4.37,4.13,5.98,6.78c1.77,2.92,2.51,6.13,3.34,9.34c0.04,0.17,0,0.37,0.06,0.53
	c1.35,3.94,1.47,8.06,1.72,12.14c0.3,5.04,0.39,10.09,0.38,15.14c-0.01,2.84-0.6,5.69-0.61,8.53c-0.01,3.28-0.7,6.43-1.6,9.51
	c-0.71,2.42-1.28,4.95-2.79,7.1c-0.49,0.7-0.66,1.65-1.2,2.29c-1.54,1.86-3.12,3.73-5.1,5.13c-1.12,0.79-2.43,1.32-3.81,1.62
	c-0.29,0.06-0.7,0.09-0.82,0.28c-1.1,1.67-3.16,1.22-4.63,2.12c-0.71,0.44-1.8,0.26-2.72,0.36
	C678.3,462.54,678.3,462.49,678.29,462.45z M694.89,409.89c-0.1-1.11-0.18-1.99-0.26-2.87c-0.18-1.99-0.26-4.01-0.59-5.97
	c-0.26-1.56-0.84-3.07-1.29-4.6c-0.05-0.17-0.1-0.35-0.2-0.49c-1.49-2.16-2.58-4.56-4.33-6.6c-1.48-1.73-3.29-2.76-5.15-3.84
	c-0.64-0.37-1.51-0.58-2.23-0.5c-1.75,0.18-3.53,0.43-5.22,0.91c-1.58,0.45-3.18,1.03-4.32,2.34c-1.48,1.69-2.98,3.36-4.34,5.14
	c-0.63,0.83-1.1,1.85-1.38,2.86c-0.17,0.62-0.38,1.1-0.82,1.51c-0.16,0.15-0.46,0.29-0.48,0.45c-0.1,1.21-0.93,2.18-0.89,3.5
	c0.04,1.12-0.57,2.27-0.9,3.4c-0.17,0.59-0.55,1.22-0.47,1.78c0.21,1.33-0.39,2.49-0.57,3.73c-0.2,1.45-1.02,2.9-0.93,4.3
	c0.23,3.41-0.65,6.87,0.4,10.24c0.07,0.22,0.09,0.53-0.01,0.71c-0.48,0.85-0.15,1.72-0.08,2.58c0.09,1.17,0.27,2.33,0.45,3.49
	c0.32,2.11,0.59,4.24,1.01,6.33c0.31,1.54,0.7,3.08,1.26,4.54c0.52,1.35,0.19,3.07,1.69,4.03c0.17,0.11,0.11,0.57,0.2,0.85
	c0.08,0.28,0.13,0.68,0.33,0.81c1.54,1,2.29,2.75,3.96,3.72c1.76,1.02,3.37,1.96,5.48,1.55c0.29-0.06,0.67,0.11,0.96,0.27
	c0.81,0.43,1.59,0.65,2.52,0.28c0.77-0.3,1.7-0.56,2.41-0.54c1.26,0.03,2.33-0.5,3.13-1.06c3.12-2.2,5.33-5.2,6.67-8.8
	c0.88-2.35,1.77-4.7,2.29-7.18c0.23-1.1,0.75-2.16,0.89-3.27c0.32-2.53,0.54-5.08,0.71-7.63c0.2-2.96,0.38-5.93,0.4-8.9
	C695.22,414.54,694.99,412.1,694.89,409.89z"/>
<path d="M569.89,411.61c0.25,2.17,0.58,4.34,0.74,6.51c0.24,3.26,0.38,6.52,0.52,9.79c0.03,0.62-0.16,1.25-0.2,1.88
	c-0.09,1.34-0.1,2.68-0.22,4.01c-0.11,1.12-0.33,2.22-0.5,3.33c-0.03,0.17,0.01,0.4-0.08,0.52c-0.86,0.97-0.64,2.18-0.82,3.31
	c-0.16,0.98-0.49,1.94-0.85,2.86c-0.66,1.69-1.42,3.34-2.08,5.02c-0.34,0.85-1.01,1.5-1.13,2.5c-0.24,1.93-1.88,3.04-3.1,4.28
	c-0.79,0.81-1.3,1.85-2.29,2.52c-0.66,0.45-1.13,1.15-2.01,1.37c-0.5,0.12-1,0.43-1.4,0.77c-0.93,0.8-1.87,1.31-3.2,1.29
	c-0.94-0.01-1.88,0.62-2.82,0.93c-0.68,0.23-1.34,0.3-2.09,0.11c-0.79-0.21-1.67-0.26-2.48-0.15c-1.36,0.18-2.55-0.16-3.73-0.78
	c-0.51-0.27-1.11-0.38-1.68-0.47c-0.55-0.09-1.08-0.07-1.23-0.78c-0.04-0.16-0.34-0.3-0.55-0.37c-1.13-0.41-2.3-0.74-3.4-1.22
	c-0.58-0.25-1.13-0.67-1.58-1.13c-1.09-1.11-2.58-1.81-3.28-3.35c-0.24-0.53-0.9-0.84-1.25-1.34c-1.52-2.18-2.6-4.6-3.31-7.14
	c-0.89-3.2-1.67-6.45-2.23-9.72c-0.39-2.31-0.3-4.7-0.47-7.06c-0.41-5.55-0.06-11.1-0.03-16.65c0.01-2.73,0.66-5.45,0.79-8.18
	c0.16-3.5,1.41-6.74,2.13-10.11c0.32-1.51,0.75-3.1,1.54-4.39c1.46-2.37,2.81-4.93,4.99-6.71c2.01-1.64,4.21-3.1,6.5-4.32
	c1.17-0.62,2.58-1.08,4.09-0.84c1.04,0.16,2.15-0.2,3.2-0.08c2.03,0.24,4.12,0.44,6.02,1.11c0.96,0.34,2.14,0.47,2.99,1.5
	c0.65,0.79,2,0.97,3.01,1.5c0.33,0.17,0.54,0.59,0.83,0.86c0.56,0.5,1.15,0.97,1.7,1.47c0.3,0.27,0.6,0.57,0.83,0.9
	c2.32,3.48,4.38,7.05,5.5,11.16c0.5,1.84,1.28,3.64,1.6,5.54c0.54,3.23,0.97,6.47,1.44,9.71
	C570.14,411.58,570.02,411.6,569.89,411.61z M562.35,407.19c0.1-0.02,0.2-0.04,0.3-0.07c-0.2-0.65-0.43-1.29-0.61-1.94
	c-0.37-1.37-0.85-2.73-1.01-4.12c-0.15-1.34-0.72-2.4-1.42-3.47c-0.22-0.33-0.4-0.7-0.54-1.07c-0.23-0.6-0.34-1.27-0.65-1.83
	c-1.41-2.51-3.44-4.53-5.4-6.58c-0.86-0.9-2.02-1.34-3.18-1.85c-2.01-0.88-4.16-0.81-6.22-1.23c-0.83-0.17-1.82,0.4-2.72,0.71
	c-0.48,0.17-0.94,0.45-1.36,0.74c-0.82,0.57-1.82,1.03-2.38,1.8c-1.55,2.13-3.54,3.99-4.44,6.57c-0.23,0.64-0.76,1.18-0.98,1.83
	c-0.44,1.28-0.76,2.6-1.11,3.92c-0.23,0.87-0.52,1.74-0.58,2.62c-0.27,3.59-0.5,7.18-0.66,10.77c-0.09,2.2-0.07,4.41,0,6.61
	c0.07,2.23,0.23,4.46,0.41,6.68c0.19,2.23,0.16,4.54,0.77,6.67c0.65,2.27,1.05,4.6,1.89,6.83c1.15,3.05,2.39,5.97,4.31,8.67
	c2.48,3.49,6.05,4.62,9.89,5.04c1.44,0.16,3.02-0.56,4.6-0.69c1.26-0.11,2.78-0.48,3.65-1.77c1.11-0.02,1.25-1.09,1.85-1.66
	c1.04-1,2.35-1.75,2.45-3.43c0.01-0.2,0.44-0.35,0.62-0.57c0.22-0.27,0.59-0.67,0.51-0.86c-0.27-0.69,0.22-1.12,0.38-1.67
	c0.39-1.32,0.77-2.65,1.08-3.99c0.26-1.13,0.4-2.29,0.62-3.43c0.41-2.06,0.89-4.11,1.25-6.17c0.19-1.09,0.52-2.31,0.21-3.28
	c-0.4-1.26,0.05-2.27,0.15-3.42c0.2-2.34,0.02-4.72,0.01-7.08c0-0.64,0.11-1.29-0.02-1.9c-0.3-1.45-0.72-2.87-1.06-4.31
	C562.74,409.24,562.56,408.21,562.35,407.19z"/>
<path d="M612.03,178.04c1.26,0.78,0.98,2.08,1.07,3.2c0.16,1.94,0.17,3.9,0.22,5.84c0.02,0.82-0.05,1.65-0.04,2.47
	c0.03,1.96,0.05,3.92,0.15,5.87c0.18,3.62,0.43,7.24,0.62,10.86c0.03,0.58-0.11,1.17-0.1,1.75c0.01,0.87,0.07,1.75,0.12,2.62
	c0.02,0.3,0.09,0.59,0.1,0.89c0.1,2.01,0.22,4.02,0.27,6.03c0.02,0.95-0.12,1.9-0.16,2.86c-0.05,1.18-0.17,2.38-0.07,3.55
	c0.25,2.72,0.2,5.41,0.03,8.13c-0.15,2.47,0.13,4.97,0.16,7.46c0.05,3.73,0.04,7.45,0.06,11.18c0,0.4-0.07,0.8-0.05,1.19
	c0.13,3,0.02,5.98-0.2,8.97c-0.11,1.5,0.21,3.03,0.24,4.54c0.03,1.23-0.08,2.46-0.15,3.69c-0.03,0.59-0.17,1.19-0.16,1.78
	c0.02,3.07,0.11,6.15,0.09,9.22c-0.01,1.67-0.2,3.33-0.31,5c-0.02,0.24-0.09,0.48-0.07,0.71c0.62,6.53,0.24,13.07,0.27,19.6
	c0.01,3.92,0.07,7.83-0.11,11.74c-0.08,1.77,0.16,3.55,0.15,5.33c-0.01,3.67-0.12,7.33-0.14,11c-0.01,2.63,0.32,5.3,0,7.89
	c-0.32,2.53,0.32,5.09-0.43,7.57c-0.07,0.22-0.12,0.49-0.05,0.7c0.6,1.88,0.06,3.77,0.06,5.65c0.01,2.9,0.05,5.8-0.02,8.69
	c-0.08,3.4-0.29,6.79-0.4,10.19c-0.1,3.04-0.14,6.08-0.24,9.12c-0.01,0.36-0.25,0.7-0.48,1.33c-0.8-1.14-0.78-2.15-0.81-3.13
	c-0.09-3.5-0.16-7.01-0.24-10.51c-0.09-4.03-0.18-8.07-0.25-12.1c-0.09-5.13-0.15-10.26-0.25-15.39c-0.04-1.83-0.23-3.66-0.24-5.49
	c-0.02-3.1,0.08-6.21,0.08-9.31c0-2.52-0.08-5.04-0.11-7.56c-0.03-2.46-0.05-4.92-0.07-7.37c-0.01-1.7-0.01-3.4-0.01-5.1
	c0.01-2.24,0.03-4.49,0.04-6.73c0-0.78,0.03-1.56-0.05-2.33c-0.16-1.49,0.09-2.94,0.16-4.41c0.11-2.37-0.08-4.75-0.08-7.13
	c0-2.5,0.1-4.99,0.11-7.49c0-1.35-0.05-2.7-0.16-4.04c-0.12-1.46,0.03-2.92-0.21-4.4c-0.24-1.48,0.04-3.03,0.07-4.56
	c0.03-1.41,0.06-2.83,0.02-4.24c-0.07-2.73-0.42-5.48-0.19-8.18c0.17-2.04-0.1-4.05,0.03-6.07c0.13-2.05-0.06-4.12,0.03-6.17
	c0.06-1.37-0.38-2.73,0.15-4.13c0.31-0.82-0.26-1.72-0.2-2.68c0.15-2.47-0.32-4.99,0.01-7.42c0.42-3.1-0.01-6.17,0.23-9.25
	c0.12-1.64-0.13-3.31,0.06-4.94c0.26-2.35,0.15-4.7,0.34-7.05c0.27-3.33,0.2-6.7,0.3-10.04c0.05-1.72,0.07-3.45,0.23-5.16
	c0.3-3.3-0.27-6.64,0.5-9.94C612.29,180.98,612.03,179.49,612.03,178.04z"/>
<path d="M611.95,98.29c0.16,0.43,0.37,0.73,0.39,1.04c0.23,3.86,0.48,7.73,0.62,11.59c0.12,3.2,0.09,6.41,0.17,9.61
	c0.07,2.71,0.19,5.43,0.29,8.14c0.15,3.86,0.4,7.72,0.43,11.58c0.04,5.26-0.02,10.52-0.14,15.78c-0.07,2.93-0.31,5.86-0.54,8.79
	c-0.05,0.69-0.29,1.41-0.61,2.03c-0.36,0.7-0.98,0.72-1.41,0.09c-0.27-0.38-0.53-0.85-0.58-1.3c-0.17-1.53-0.26-3.06-0.34-4.6
	c-0.1-1.94-0.18-3.89-0.22-5.83c-0.06-2.72-0.07-5.45-0.1-8.17c-0.01-0.41,0.01-0.84-0.07-1.24c-0.22-1.24-0.3-2.46,0.07-3.69
	c0.12-0.39,0.21-0.84,0.14-1.24c-0.44-2.73,0-5.44,0.05-8.17c0.05-2.32,0.14-4.64,0.19-6.96c0.08-3.6,0.12-7.19,0.23-10.79
	c0.15-4.59,0.31-9.19,0.56-13.77C611.15,100.27,610.95,99.17,611.95,98.29z"/>
</svg>
